<svg xmlns="http://www.w3.org/2000/svg" viewBox="0 0 1280 126.82"><defs><style>.cls-1{fill:#696;}</style></defs><title>Artboard 6 copy</title><g id="Layer_1" data-name="Layer 1"><path class="cls-1" d="M1272.72,15.21a239,239,0,0,0-35.66,38.52,243,243,0,0,0-23.32-37.36,242.82,242.82,0,0,0-16.41,34.68,240.65,240.65,0,0,0-24.94-22.65s-7.5,25.61-8.25,53.26c-4.33-11-8-18.14-8-18.14s-4.37,4.88-10.3,12.8a232.2,232.2,0,0,0-12.9-22.27s-5.24,7.51-11.5,18.94A242.59,242.59,0,0,0,1107,36.65a238.28,238.28,0,0,0-19.17,25.42A238.86,238.86,0,0,0,1055,21.8a239.06,239.06,0,0,0-13.8,50.28c-6.32-7.11-10.86-11.42-10.86-11.42s-2.21,5.31-5,13.75A239.47,239.47,0,0,0,1009,47.78a239.78,239.78,0,0,0-21.85,45.4C977.06,66,959.88,42.67,959.88,42.67s-4.26,6.63-9.52,16.9a241.55,241.55,0,0,0-24-25.66,241.76,241.76,0,0,0-11.52,45.38c-4.09-6.78-7-10.9-7-10.9s-3.49,5.21-8.11,13.55A242.92,242.92,0,0,0,880.3,47.75S875.42,55,869.56,66.17a233.63,233.63,0,0,0-11.34-23.33A242.15,242.15,0,0,0,833.79,81a233.07,233.07,0,0,0-16.67-21.06,239.33,239.33,0,0,0-11.75,29.43C796.71,80.49,790.09,75,790.09,75s-2.7,8-5.41,19.87c-3.83-6.3-6.52-10.09-6.52-10.09s-3.94,5.89-9,15.16h-.56C764.94,91,762,85.31,762,85.31s-4.4,4.9-10.37,12.83c-3.92-3.63-6.41-5.69-6.41-5.69s-.66,1.94-1.64,5.32c-7-9-12.31-14.65-12.31-14.65s-2.38,4.95-5.48,12.89c-3.65-4.34-6-6.85-6-6.85s-2,4.09-4.66,10.79H715c-4-4.74-6.56-7.5-6.56-7.5s-1.34,2.78-3.31,7.5h-.6c-2.52-3.65-4.13-5.77-4.13-5.77s-.55.89-1.48,2.5c-3.62-7.28-6.28-11.76-6.28-11.76s-4.26,5.39-9.9,14c-7-9.85-12.47-16.11-12.47-16.11S667.52,88,664,96.18c-1.66-2.84-2.69-4.44-2.69-4.44s-.76,1-2.06,2.91c-2.91-3.4-4.73-5.33-4.73-5.33s-1.44,3-3.53,8c-2.74-4-4.51-6.31-4.51-6.31s-1.57,2.55-4,6.94c-1.55-2.45-2.49-3.81-2.49-3.81s-.94,1.36-2.49,3.81c-2.4-4.39-4-6.94-4-6.94s-1.77,2.31-4.51,6.31c-2.09-5.06-3.53-8-3.53-8s-1.82,1.93-4.73,5.33c-1.3-1.88-2.06-2.91-2.06-2.91s-1,1.6-2.69,4.44c-3.54-8.23-6.27-13.38-6.27-13.38s-5.49,6.26-12.47,16.11c-5.64-8.6-9.9-14-9.9-14s-2.66,4.48-6.28,11.76c-.93-1.61-1.48-2.5-1.48-2.5S578,96.3,575.49,100h-.6c-2-4.72-3.31-7.5-3.31-7.5S569,95.21,565,100h-.17c-2.69-6.7-4.66-10.79-4.66-10.79s-2.36,2.51-6,6.85c-3.1-7.94-5.48-12.89-5.48-12.89s-5.33,5.64-12.31,14.65c-1-3.38-1.64-5.32-1.64-5.32s-2.49,2.06-6.41,5.69c-6-7.93-10.37-12.83-10.37-12.83S515.06,91,511.39,100h-.56c-5.05-9.27-9-15.16-9-15.16s-2.69,3.79-6.52,10.09C492.61,83,489.91,75,489.91,75s-6.62,5.48-15.28,14.33a239.33,239.33,0,0,0-11.75-29.43A233.07,233.07,0,0,0,446.21,81a242.15,242.15,0,0,0-24.43-38.13,231,231,0,0,0-11.34,23.33C404.58,55,399.7,47.75,399.7,47.75a242.92,242.92,0,0,0-19.44,34.19c-4.62-8.34-8.11-13.55-8.11-13.55s-2.91,4.12-7,10.9a241.76,241.76,0,0,0-11.52-45.38,241.55,241.55,0,0,0-24,25.66c-5.26-10.27-9.52-16.9-9.52-16.9S302.94,66,292.88,93.18A239.78,239.78,0,0,0,271,47.78a240.34,240.34,0,0,0-16.4,26.63c-2.75-8.44-5-13.75-5-13.75S245.13,65,238.81,72.08A239.06,239.06,0,0,0,225,21.8a238.86,238.86,0,0,0-32.84,40.27A238.28,238.28,0,0,0,173,36.65,242.59,242.59,0,0,0,158.59,73c-6.26-11.43-11.5-18.94-11.5-18.94a232.2,232.2,0,0,0-12.9,22.27c-5.93-7.92-10.3-12.8-10.3-12.8s-3.7,7.18-8,18.14c-.75-27.65-8.25-53.26-8.25-53.26A240.65,240.65,0,0,0,82.67,51.05,242.82,242.82,0,0,0,66.26,16.37,243,243,0,0,0,42.94,53.73,239,239,0,0,0,7.28,15.21,235.59,235.59,0,0,0,0,43.35V100H0v26.87H1280V43.35A235.59,235.59,0,0,0,1272.72,15.21Z"/></g></svg>