<svg xmlns="http://www.w3.org/2000/svg" viewBox="0 0 251.33 107.57"><defs><style>.cls-1,.cls-2{fill:#fff;}.cls-1,.cls-3,.cls-4{stroke:#fff;stroke-miterlimit:10;}.cls-3,.cls-4{fill:none;}.cls-3{stroke-width:2.52px;}.cls-4{stroke-width:1.68px;}</style></defs><title>Artboard 7 copy</title><g id="Layer_1" data-name="Layer 1"><path class="cls-1" d="M23,11.94c-.05-2.24-.32-2.69-.32-3.66,0-.68,1.43-.86,1.51-.25a30.83,30.83,0,0,1,.19,3.85c.05,2.21-.16,3.45-.16,5.63,0,1.8.21,2.8.13,4.58-.08,1.56.05,2.44,0,4,0,.64-1.72.62-1.67-.08a29.91,29.91,0,0,0-.08-3.15c0-.75.11-1.59.13-2.34,0-.57-.24-.84-5.67-.54-1.78.08-3.48-.08-5.25-.06-1,0-1.35,0-1.89,0-.21,0-.59.08-.59.43,0,.65,0,1.32-.05,2.1a15.26,15.26,0,0,0,.51,3.88c0,.35-1.29.56-1.46.27C7.73,25.4,8,24,7.86,22.41,7.7,19.85,8,18.51,8,16c0-1.43-.18-2.21-.21-3.61,0-1.24.11-2,0-3.5,0-.51,1.43-.48,1.45-.11.08,1.4,0,2.43.06,3.8s.19,2,.19,3.45c0,.86,0,1.58-.06,2.28,0,.33.11.35.49.35h2.63c.65,0,1.38.11,1.89.11.91,0,1.53-.08,2.66-.16a33.48,33.48,0,0,1,4.52,0c1.13.05,1.16-.06,1.16-1.08C22.77,15.33,23.07,14.09,23,11.94Z"/><path class="cls-1" d="M32.38,24.48c0,.54.06.7.57.65.67-.06,1.35-.08,2.18-.11,2-.06,3,.05,4.52.11,1,0,2.51-.08,3.8-.08.64,0,.48,1.61-.08,1.61-1.3,0-2.37-.13-3.37-.13-1.56,0-2.72-.11-4.65-.11-1.32,0-2.16.16-3.48.21-.56,0-.86-.43-.94-1.56-.32-5.33-.35-7.43-.29-12.76a29,29,0,0,0,0-3.09C30.53,8.25,31,8,32,8.12c1.4.13,1.72.13,3.12.18,1.75,0,2.88-.21,4.26-.21s2.47,0,4.09.05c.59,0,.7,1.48.11,1.48-1.57,0-2.7-.13-3.88-.13a42.51,42.51,0,0,1-4.25.13c-.84,0-1.7-.08-2.48,0s-.83.16-.83,2.71c0,2,0,3.67,0,5.25,0,.7.11.81,2.51.73,1.88-.05,3.23,0,4.68,0s2.69.05,4.44.05c.43,0,.67,1.43,0,1.46-1.75.05-3.13,0-4.5,0s-2.39-.06-4.28,0c-2.2,0-2.82,0-2.82.54C32.2,21.6,32.3,23,32.38,24.48Z"/><path class="cls-1" d="M49.1,26.15c-.05-2,.16-2.18.16-4.15,0-2.55.17-5,.08-7S49.16,9,50,8.82c2.67-.6,4.39-.17,8.13,0,4.31.16,8,1.61,8,6.81,0,2.82-2.66,4.28-6.16,4.76a32.61,32.61,0,0,1-3.53.43c-.67,0-2.85-.13-2.88.14s1.89.72,3.13,1.13c1.53.51,3.87,1.4,5.16,1.8,2.48.76,2.18.59,4.71,1.4.95.3.35,1.75-.56,1.37A60.79,60.79,0,0,0,59.2,24.4c-1.27-.38-2.32-.78-3.88-1.32-.89-.3-3.47-1.64-4.36-1.48-.46.08-.38,1.72-.3,4.47C50.69,26.77,49.13,27.12,49.1,26.15Zm11.55-7.27c2.31-.59,3.74-1.45,3.63-4-.13-3.39-2.15-4.46-5.73-4.65-2.26-.11-3.18-.11-4.84-.24-1.3-.11-2.59-.09-2.83.88a45.46,45.46,0,0,0-.19,5.79c-.19,3.28,0,3,1.45,3A39.39,39.39,0,0,0,60.65,18.88Z"/><path class="cls-1" d="M73.49,24.43c.06,1.24,2.88.72,4.36.64A28.16,28.16,0,0,1,81.59,25c1.43.05,2.43.05,3.72,0,.64,0,.48,1.34.16,1.42a15.56,15.56,0,0,1-3.61,0c-1.56,0-2.07,0-4,.06-1.32,0-2.82.1-4.14.18-1.48.09-1.75-1-1.75-2.09-.06-5.07-.08-6.87-.11-12.2a16.13,16.13,0,0,0,0-2.5c-.11-1,0-1.75,1.32-1.78s2.79.19,4.19.19c1.75,0,1.81-.05,3.18-.08S83,8,84.58,8c.59,0,.73,1.43.14,1.43-1.56,0-2.69.11-3.88.14a17.47,17.47,0,0,1-2.58,0c-.84,0-3.21.13-4,.19s-.94.08-.94,2.64c0,1.93-.11,3.6,0,4.84,0,1.05,1.26.94,3.68.86,1.89-.05,2.89-.08,4.34-.05,1.29,0,2.39.11,4.14.05.43,0,.7,1.4.06,1.43-1.73,0-3.82,0-5.2-.06s-1.18,0-3.07,0c-2.2,0-3.9,0-3.9.54C73.36,21.25,73.41,22.25,73.49,24.43Z"/><path class="cls-1" d="M91,7.79a1.09,1.09,0,0,1,1,1.16,3.85,3.85,0,0,1-.51,1.86,6.41,6.41,0,0,1-1,1.77c-.3.33-1.05,0-.89-.4a4.88,4.88,0,0,0,.59-1.75c0-.51-.4-.73-.46-1.37A1.28,1.28,0,0,1,91,7.79Z"/><path class="cls-1" d="M107.33,10.08c-2.34,0-2.93-.05-5.3.08a11.23,11.23,0,0,0-3.74.59A2.64,2.64,0,0,0,96.75,13c-.13,1.72,2.51,2.21,4,2.37a38,38,0,0,0,6.71.21,5.92,5.92,0,0,1,3.74,1,5.71,5.71,0,0,1,2.42,4.25c0,3.2-2.83,4.85-5.71,5.54-1.94.46-2.64.19-4.68.22a38.05,38.05,0,0,1-5.87,0c-1-.14-.48-1.78.22-1.67a51.32,51.32,0,0,0,6.46.21,12.71,12.71,0,0,0,4.09-.54c2.23-.53,4-1.66,4-4.17a3.65,3.65,0,0,0-1.53-2.8c-.89-.59-2.34-.43-3.42-.43a35,35,0,0,1-7.21-.35c-2.21-.21-4.82-1.94-4.58-4.44A3.73,3.73,0,0,1,97.8,9.06a10.45,10.45,0,0,1,4.31-.57c2.47.08,1.67.11,4.06.08a31,31,0,0,0,3.13-.32c.83-.16,1.07,1.56.35,1.67A16.76,16.76,0,0,1,107.33,10.08Z"/><path class="cls-1" d="M123.91,9.89c-1,0-1.31.08-2.34.08s-1-2.07,0-2c1.16.13,1.83.21,2.93.32s1.67.08,2.53.14c2,.13,3.13.13,4.9.13,1.13,0,3.12-.16,4.52,0,.84,0,.43,1.48,0,1.45-1.4-.11-1.69-.24-2.83-.27-.8,0-1.66,0-2.55,0S130,9.86,129.94,12c0,2.29-.1,5.82-.1,8.64,0,2.62.35,3,.24,5.5-.06,1-2.1.64-1.94-.09a13.91,13.91,0,0,0,.35-3.25c0-1.11-.08-2.05-.08-3.42,0-1.56-.11-3.18,0-4.71,0-1.24.24-2.42.26-3.47s-.32-1.32-.94-1.38C126.82,9.7,124.91,9.92,123.91,9.89Z"/><path class="cls-1" d="M156.14,11.94c-.06-2.24-.33-2.69-.33-3.66,0-.68,1.43-.86,1.51-.25a30.83,30.83,0,0,1,.19,3.85c.05,2.21-.16,3.45-.16,5.63,0,1.8.21,2.8.13,4.58-.08,1.56.06,2.44,0,4,0,.64-1.72.62-1.67-.08a29.91,29.91,0,0,0-.08-3.15c0-.75.11-1.59.14-2.34,0-.57-.24-.84-5.68-.54-1.78.08-3.47-.08-5.25-.06-.94,0-1.35,0-1.88,0-.22,0-.6.08-.6.43,0,.65,0,1.32-.05,2.1a15.26,15.26,0,0,0,.51,3.88c.05.35-1.29.56-1.45.27-.62-1.21-.38-2.59-.49-4.2-.16-2.56.14-3.9.14-6.46,0-1.43-.19-2.21-.22-3.61,0-1.24.11-2,0-3.5,0-.51,1.43-.48,1.46-.11.08,1.4,0,2.43,0,3.8s.19,2,.19,3.45c0,.86,0,1.58-.06,2.28,0,.33.11.35.49.35h2.64c.64,0,1.37.11,1.88.11.92,0,1.53-.08,2.67-.16a33.52,33.52,0,0,1,4.52,0c1.13.05,1.15-.06,1.15-1.08C155.89,15.33,156.19,14.09,156.14,11.94Z"/><path class="cls-1" d="M165.56,24.43c.06,1.24,2.88.72,4.36.64a28.16,28.16,0,0,1,3.74-.05c1.43.05,2.43.05,3.72,0,.64,0,.48,1.34.16,1.42a15.56,15.56,0,0,1-3.61,0c-1.56,0-2.07,0-4,.06-1.32,0-2.82.1-4.14.18-1.48.09-1.75-1-1.75-2.09-.06-5.07-.08-6.87-.11-12.2a16.13,16.13,0,0,0,0-2.5c-.11-1,0-1.75,1.31-1.78s2.8.19,4.2.19c1.75,0,1.81-.05,3.18-.08S175,8,176.65,8c.59,0,.73,1.43.13,1.43-1.56,0-2.69.11-3.87.14a17.47,17.47,0,0,1-2.58,0c-.84,0-3.21.13-4,.19s-.94.08-.94,2.64c0,1.93-.11,3.6-.05,4.84.05,1.05,1.26.94,3.68.86,1.89-.05,2.88-.08,4.34-.05,1.29,0,2.39.11,4.14.05.43,0,.7,1.4.06,1.43-1.73,0-3.83,0-5.2-.06s-1.18,0-3.07,0c-2.2,0-3.9,0-3.9.54C165.43,21.25,165.48,22.25,165.56,24.43Z"/><path class="cls-2" d="M45.5,34.44C59,39.92,65.89,52.29,66.29,67.51c.41,16.23-12.57,30.83-27,32.15-12,1.52-18,.81-24,.71-3.86-.1-5.68-.2-6.09-3.14A28.25,28.25,0,0,1,9,91.44c-.1-4.66-.1-9-.1-13.08-.31-5.38.3-10.14.2-15.11-.1-6.39-.91-13.09-.51-21.71.1-3-.2-5.47-.2-8.52,0-1.92.91-2.84,2.84-2.74C22.78,31.1,32.82,29.27,45.5,34.44ZM14.16,78.26c.2,3.95.2,10,.1,15.21,0,1,0,1.63,2.13,1.63a137.91,137.91,0,0,0,20.49-.92C49.25,92.76,61,79.48,60.82,66.09c-.31-12.27-3.66-20.69-14.41-25.66C36.68,36,23.69,35.66,15,35.76c-.51,0-.81.31-1.11,1.32,0,1.22-.11,2.64-.21,4.16C13.15,56.25,13.75,66.09,14.16,78.26Z"/><path class="cls-2" d="M87.7,43.17c.1,5.07.1,10.95.2,15.21,0,2.33-.41,4.16-.51,6-.1,4.36.1,8,.2,13.19.21,5.37,0,13.69.61,20,.31,3.65-5.58,4.87-5.88,1.22-.61-6.49-.91-11.06-1.12-16.64-.2-7.3-.2-15.72-.3-23.63-.1-4.26.51-9.63.41-14.71-.11-4.05,0-6.79-.31-10.65-.3-3.65,6.9-1.72,7,1.93C88.1,39.11,87.59,39.11,87.7,43.17Z"/><path class="cls-2" d="M114,49.86c-.1,3.65.91,4.87.91,10.14,0,6.59-.51,10.55-.61,17.14,0,6.19-.81,12.28.81,15.72.81,1.73,5.48.51,8.83.71,10.44.51,18.15,1.42,23.53.82a55.26,55.26,0,0,1,13,.1c3.75.5,2.23,6.29.3,6a96.85,96.85,0,0,0-10.95-1.32c-6.8-.2-7.91.92-14.71.71-3.95-.1-7.91-.4-12-.4-4.47,0-6.7.81-9.44.71-3.85-.1-4.46-2.23-4.16-7.41.51-9.23-.3-10.55-.2-16.53.1-6.59.41-9.33.1-15.92-.5-11.57-.1-20.09-.81-27.69-.3-3.65,6.9-1.73,6.59,1.32C114.78,38,114.07,45.7,114,49.86Z"/><path class="cls-2" d="M179.39,57.16c-.1,6.6-.51,15.93-.81,22.52-.31,6.19-.31,9.84,1.42,13.39,1,2.13,4.26,1.92,7.91,2,10.45.3,12.58-.92,20.18-.82a93.2,93.2,0,0,0,9.84.21c2.84-.1,5.38-.81,8.22-1.12,3.75-.3,2.84,6.39.91,6.49-9,.61-15.32-.1-24.24.1-4.16.11-11.36,1-15.42,1-4.56,0-4.46-.41-7.1-.41-3.85,0-6.59-1.21-7.2-6.59-.71-6,.31-11,.51-16.94.2-6.59.51-12.88.3-19.47-.2-7.51-.5-10.45-.5-15.93,0-3,.6-5.88.2-8.72-.51-3.65,6.69-3.35,6.59.41C180,41.44,179.59,45.9,179.39,57.16Z"/><path class="cls-3" d="M227.93,61s-1.88-2.79,3.51-16.29"/><path class="cls-3" d="M223.25,45.92s-9.58-6.71-13.39-12.05"/><circle class="cls-3" cx="216.1" cy="14.91" r="3.73"/><circle class="cls-3" cx="230.05" cy="21.01" r="3.73"/><circle class="cls-3" cx="200.27" cy="17.04" r="3.73"/><circle class="cls-3" cx="207.66" cy="31.22" r="3.46"/><circle class="cls-3" cx="197.28" cy="38.43" r="3.46"/><circle class="cls-3" cx="232.81" cy="40.99" r="4.01"/><circle class="cls-3" cx="200.05" cy="57.01" r="4.01"/><path class="cls-3" d="M219.19,42.87a36.46,36.46,0,0,0-19.27-4.08"/><path class="cls-3" d="M223.25,48.56s-3.93-16.74,4.68-25.78"/><path class="cls-3" d="M219.54,34.68S215.19,21,203,17.47"/><circle class="cls-4" cx="224" cy="11.25" r="1.65"/><circle class="cls-4" cx="195.78" cy="27.98" r="1.99"/><circle class="cls-4" cx="238.13" cy="29.9" r="2.51"/><circle class="cls-4" cx="209.91" cy="66.09" r="2.51"/><circle class="cls-4" cx="210.16" cy="7.11" r="2.14"/><path class="cls-3" d="M216.82,18.56a159.4,159.4,0,0,0,8.83,36.91,153.39,153.39,0,0,0,7.16,15.68c4.68,9.21,8,20.77,7.55,29.82"/><path class="cls-2" d="M232.81,71.15a74.26,74.26,0,0,1,7.36,14,53.41,53.41,0,0,1,3.14,15.93l-5.89-.22a48.93,48.93,0,0,0-.1-14.94A72.74,72.74,0,0,0,232.81,71.15Z"/><path class="cls-3" d="M230.05,65.61S223,52.88,203,56.41"/><path class="cls-3" d="M222.35,58.71c-5.77-.79-11.1,6.12-11.1,6.12"/></g></svg>