<svg xmlns="http://www.w3.org/2000/svg" viewBox="0 0 251.33 107.57"><defs><style>.cls-1{font-size:26.92px;}.cls-1,.cls-4,.cls-8{fill:#fff;}.cls-1,.cls-6,.cls-7{stroke:#fff;stroke-miterlimit:10;}.cls-1,.cls-4{font-family:NeutrafaceDisplay-Drafting, Neutraface Display;}.cls-2{letter-spacing:0.02em;}.cls-3{letter-spacing:0em;}.cls-4{font-size:101.43px;}.cls-5{letter-spacing:-0.04em;}.cls-6,.cls-7{fill:none;}.cls-6{stroke-width:2.52px;}.cls-7{stroke-width:1.68px;}</style></defs><title>Artboard 7</title><g id="Layer_1" data-name="Layer 1"><text class="cls-1" transform="translate(4.6 26.61)">HERE<tspan class="cls-2" x="83.24" y="0">’</tspan><tspan class="cls-3" x="89.32" y="0">S THE</tspan></text><text class="cls-4" transform="translate(-3.49 100.27)"><tspan class="cls-5">DIL</tspan><tspan x="164.11" y="0">L</tspan></text><path class="cls-6" d="M227.93,61s-1.88-2.79,3.51-16.29"/><path class="cls-6" d="M223.25,45.92s-9.58-6.71-13.39-12.05"/><circle class="cls-6" cx="216.1" cy="14.91" r="3.73"/><circle class="cls-6" cx="230.05" cy="21.01" r="3.73"/><circle class="cls-6" cx="200.27" cy="17.04" r="3.73"/><circle class="cls-6" cx="207.66" cy="31.22" r="3.46"/><circle class="cls-6" cx="197.28" cy="38.43" r="3.46"/><circle class="cls-6" cx="232.81" cy="40.99" r="4.01"/><circle class="cls-6" cx="200.05" cy="57.01" r="4.01"/><path class="cls-6" d="M219.19,42.87a36.46,36.46,0,0,0-19.27-4.08"/><path class="cls-6" d="M223.25,48.56s-3.93-16.74,4.68-25.78"/><path class="cls-6" d="M219.54,34.68S215.19,21,203,17.47"/><circle class="cls-7" cx="224" cy="11.25" r="1.65"/><circle class="cls-7" cx="195.78" cy="27.98" r="1.99"/><circle class="cls-7" cx="238.13" cy="29.9" r="2.51"/><circle class="cls-7" cx="209.91" cy="66.09" r="2.51"/><circle class="cls-7" cx="210.16" cy="7.11" r="2.14"/><path class="cls-6" d="M216.82,18.56a159.4,159.4,0,0,0,8.83,36.91,153.39,153.39,0,0,0,7.16,15.68c4.68,9.21,8,20.77,7.55,29.82"/><path class="cls-8" d="M232.81,71.15a74.26,74.26,0,0,1,7.36,14,53.41,53.41,0,0,1,3.14,15.93l-5.89-.22a48.93,48.93,0,0,0-.1-14.94A72.74,72.74,0,0,0,232.81,71.15Z"/><path class="cls-6" d="M230.05,65.61S223,52.88,203,56.41"/><path class="cls-6" d="M222.35,58.71c-5.77-.79-11.1,6.12-11.1,6.12"/></g></svg>